<?xml version="1.0" encoding="UTF-8"?>
<svg id="Calque_1" data-name="Calque 1" xmlns="http://www.w3.org/2000/svg" viewBox="0 0 243.26 243.39">
  <defs>
    <style>
      .cls-1 {
        fill: none;
      }

      .cls-2 {
        fill: #3a5cda;
      }

      .cls-3 {
        fill: #3d60dd;
      }

      .cls-4 {
        fill: #789dfb;
      }

      .cls-5 {
        fill: #182677;
      }

      .cls-6 {
        fill: #13216b;
      }

      .cls-7 {
        fill: #20339b;
      }

      .cls-8 {
        fill: #15267b;
      }

      .cls-9 {
        fill: #79a0fc;
      }

      .cls-10 {
        fill: #3050cb;
      }

      .cls-11 {
        fill: #fff;
      }

      .cls-12 {
        fill: #2e4dc5;
      }

      .cls-13 {
        fill: #567def;
      }

      .cls-14 {
        fill: #2740b5;
      }

      .cls-15 {
        fill: #0c1644;
      }

      .cls-16 {
        fill: #3b5dd6;
      }

      .cls-17 {
        fill: #4265e3;
      }

      .cls-18 {
        fill: #2844bb;
      }

      .cls-19 {
        fill: #7aa1fb;
      }

      .cls-20 {
        fill: #18213d;
      }
    </style>
  </defs>
  <g>
    <polygon class="cls-1" points="106.91 101.75 106.91 101.75 106.91 101.75 106.91 101.75"/>
    <rect class="cls-1" x="106.91" y="101.75" width="0" height="0" transform="translate(-40.25 113.02) rotate(-47.96)"/>
    <polygon class="cls-13" points="92.93 101.75 106.91 101.75 97.77 93.53 92.93 101.75"/>
    <polygon class="cls-3" points="109.35 73.87 109.35 73.87 123.86 86.41 123.86 73.87 109.35 73.87"/>
    <polygon class="cls-20" points="123.86 86.45 123.88 86.43 123.86 86.41 123.86 86.45"/>
    <polygon class="cls-19" points="123.86 73.87 123.86 49.24 109.35 73.87 109.35 73.87 123.86 73.87"/>
    <polygon class="cls-18" points="123.86 86.41 109.35 73.87 106.91 101.75 106.92 101.75 123.86 86.45 123.86 86.41"/>
    <polygon class="cls-9" points="109.35 73.87 109.35 73.87 97.77 93.53 106.91 101.75 106.91 101.75 109.35 73.87"/>
    <rect class="cls-20" x="109.35" y="73.87" width="0" height="0"/>
    <polygon class="cls-20" points="109.35 73.87 109.35 73.87 109.35 73.87 109.35 73.87"/>
    <polygon class="cls-1" points="140.8 101.75 140.8 101.75 140.8 101.75 140.8 101.75"/>
    <rect class="cls-1" x="140.79" y="101.75" width="0" height="0" transform="translate(-31.91 120.47) rotate(-42.04)"/>
    <polygon class="cls-8" points="138.36 73.87 138.36 73.87 123.86 86.41 123.86 73.87 138.36 73.87"/>
    <polygon class="cls-20" points="123.86 86.45 123.84 86.43 123.86 86.41 123.86 86.45"/>
    <polygon class="cls-12" points="123.86 73.87 123.86 49.24 138.36 73.87 138.36 73.87 123.86 73.87"/>
    <polygon class="cls-14" points="123.86 86.41 138.36 73.87 140.8 101.75 140.79 101.75 123.86 86.45 123.86 86.41"/>
    <polygon class="cls-2" points="149.94 93.53 138.36 73.87 138.36 73.87 140.8 101.75 140.8 101.75 154.78 101.75 149.94 93.53"/>
    <rect class="cls-20" x="138.36" y="73.87" width="0" height="0"/>
    <polygon class="cls-20" points="138.36 73.87 138.36 73.87 138.36 73.87 138.36 73.87"/>
  </g>
  <polygon class="cls-1" points="123.86 101.76 123.86 101.76 123.86 101.76 123.86 101.76"/>
  <rect class="cls-1" x="123.86" y="101.76" width="0" height="0" transform="translate(-34.66 125.61) rotate(-47.96)"/>
  <polygon class="cls-1" points="99.47 106.35 99.47 106.35 99.47 106.35 99.47 106.35"/>
  <rect class="cls-1" x="99.47" y="106.35" width="0" height="0" transform="translate(-45.62 93.98) rotate(-42.04)"/>
  <g>
    <polygon class="cls-7" points="138.36 156.52 138.36 156.52 123.86 143.99 123.86 156.52 138.36 156.52"/>
    <polygon class="cls-20" points="123.86 143.95 123.84 143.97 123.86 143.99 123.86 143.95"/>
    <polygon class="cls-6" points="123.86 156.52 123.86 181.16 138.36 156.52 138.36 156.52 123.86 156.52"/>
    <polygon class="cls-10" points="123.86 143.99 138.36 156.52 140.8 128.64 140.79 128.64 123.86 143.95 123.86 143.99"/>
    <polygon class="cls-16" points="140.8 128.64 140.8 128.64 138.36 156.52 138.36 156.52 149.94 136.87 154.78 128.64 140.8 128.64"/>
    <rect class="cls-20" x="138.36" y="156.52" width="0" height="0"/>
    <polygon class="cls-20" points="138.36 156.52 138.36 156.52 138.36 156.52 138.36 156.52"/>
    <polygon class="cls-4" points="109.35 156.52 109.35 156.52 123.86 143.99 123.86 156.52 109.35 156.52"/>
    <polygon class="cls-20" points="123.86 143.95 123.88 143.97 123.86 143.99 123.86 143.95"/>
    <polygon class="cls-17" points="123.86 156.52 123.86 181.16 109.35 156.52 109.35 156.52 123.86 156.52"/>
    <polygon class="cls-15" points="123.86 143.99 109.35 156.52 106.91 128.64 106.92 128.64 123.86 143.95 123.86 143.99"/>
    <polygon class="cls-5" points="106.91 128.64 106.91 128.64 92.93 128.64 97.77 136.87 109.35 156.52 109.35 156.52 106.91 128.64"/>
    <rect class="cls-20" x="109.35" y="156.52" width="0" height="0"/>
    <polygon class="cls-20" points="109.35 156.52 109.35 156.52 109.35 156.52 109.35 156.52"/>
  </g>
  <polygon class="cls-15" points="182.59 101.76 65.12 101.76 55.32 108.75 55.32 121.66 65.12 128.64 182.59 128.64 192.39 121.66 192.39 108.75 182.59 101.76"/>
  <g>
    <path class="cls-14" d="M75.97,106.03h6.44v5.55h-6.44v-5.55ZM75.97,114.6h6.44v11.22h-6.44v-11.22Z"/>
    <path class="cls-11" d="M102.29,119.46c-1.26,1.16-2.87,1.75-4.78,1.75-3.5,0-6.35-2.63-6.35-5.86s2.91-6.16,6.35-6.16c1.95,0,3.48.87,4.85,1.8l.38.26,3.57-2.94-.44-.4c-2.37-2.15-5.33-3.33-8.36-3.33-6.15,0-11.35,4.93-11.35,10.77s5.09,10.46,11.35,10.46c3.36,0,6.25-1.06,8.37-3.06l.4-.38-3.57-3.29-.41.38Z"/>
    <path class="cls-11" d="M119.64,104.65c-6.2,0-11.24,4.77-11.24,10.63s5.04,10.54,11.24,10.54,11.33-4.73,11.33-10.54-5.08-10.63-11.33-10.63ZM119.64,121.1c-3.56,0-6.24-2.51-6.24-5.83s2.74-5.94,6.24-5.94,6.33,2.66,6.33,5.94-2.78,5.83-6.33,5.83Z"/>
    <path class="cls-11" d="M141.57,105.37h-8.51v20.45h8.51c3.07,0,6.04-1.05,8.39-2.98,2.24-1.92,3.47-4.51,3.47-7.29s-1.23-5.29-3.47-7.21-5.22-2.98-8.39-2.98ZM141.57,121.38h-2.92v-11.57h2.92c3.63,0,6.59,2.58,6.59,5.74s-2.9,5.83-6.59,5.83Z"/>
    <polygon class="cls-11" points="160.33 121.24 160.33 117.49 169.73 117.49 169.73 112.92 160.33 112.92 160.33 109.94 170.82 109.94 170.82 105.37 155.52 105.37 155.52 125.82 171.74 125.82 171.74 121.24 160.33 121.24"/>
  </g>
</svg>